<svg xmlns="http://www.w3.org/2000/svg" width="260.809" height="17.35" fill="none"><path fill="#FFF" fill-rule="evenodd" d="M.598 17.11q-.264 0-.434-.176Q0 16.752 0 16.512V.908Q0 .645.164.48.334.31.598.31H3.14q.41 0 .586.182.181.176.234.276l5.853 9.21V.909q0-.263.165-.428.17-.17.433-.17h2.883q.264 0 .428.17.17.165.17.428v15.58q0 .264-.17.446-.164.175-.428.175h-2.566q-.387 0-.569-.193-.176-.193-.228-.264L4.078 7.775v8.737q0 .24-.17.422-.164.175-.428.175H.598Zm15.697 0q-.193 0-.352-.153-.152-.158-.152-.352 0-.117.024-.216L21.457.979q.07-.264.299-.463.229-.205.633-.205h3.55q.41 0 .64.205.228.199.298.463l5.62 15.41q.046.1.046.216 0 .194-.158.352-.152.152-.37.152h-2.952q-.358 0-.54-.175-.181-.182-.228-.329l-.937-2.449h-6.405l-.914 2.45q-.047.146-.217.328-.17.175-.574.175h-2.953Zm5.637-6.41h4.465l-2.233-6.335-2.232 6.334Zm13.106 6.41q-.24 0-.422-.176-.176-.182-.176-.422V.908q0-.263.176-.428.181-.17.422-.17h2.59q.41 0 .603.206.193.199.24.322l4.225 7.558L46.92.838q.07-.123.247-.322.181-.205.591-.205h2.567q.263 0 .445.17.182.164.182.427v15.604q0 .24-.182.422-.182.175-.445.175H47.47q-.263 0-.445-.175-.182-.182-.182-.422v-9l-2.683 5.015q-.123.217-.317.387-.187.164-.527.164h-1.248q-.334 0-.527-.164-.194-.17-.311-.387l-2.713-5.015v9q0 .24-.17.422-.164.175-.428.175h-2.882Zm18.313 0q-.193 0-.352-.153-.152-.158-.152-.352 0-.117.024-.216L58.513.979q.07-.264.299-.463.229-.205.633-.205h3.55q.41 0 .64.205.228.199.298.463l5.62 15.41q.046.1.046.216 0 .194-.158.352-.152.152-.37.152H66.12q-.358 0-.54-.175-.181-.182-.228-.329l-.937-2.449h-6.405l-.914 2.45q-.047.146-.217.328-.17.175-.574.175h-2.953Zm5.637-6.41h4.465L61.22 4.364 58.988 10.7Zm13.106 6.41q-.264 0-.434-.176-.164-.182-.164-.422V.908q0-.263.164-.428.17-.17.434-.17h2.543q.41 0 .586.182.181.176.234.276l5.854 9.21V.909q0-.263.163-.428.17-.17.434-.17h2.883q.264 0 .428.17.17.165.17.428v15.58q0 .264-.17.446-.164.175-.428.175h-2.566q-.387 0-.569-.193-.176-.193-.228-.264l-5.854-8.877v8.737q0 .24-.17.422-.164.175-.427.175h-2.883Zm23.59.24q-2.28 0-3.926-.756-1.64-.756-2.543-2.21-.897-1.452-.99-3.538-.024-1.032-.024-2.192 0-1.166.024-2.226.093-2.04 1.002-3.451.914-1.418 2.572-2.163Q93.457.07 95.684.07q1.804 0 3.193.446 1.395.44 2.338 1.183.949.744 1.453 1.635.504.885.533 1.752 0 .217-.158.363-.158.14-.375.14h-3.504q-.264 0-.398-.081-.13-.088-.223-.252-.17-.363-.492-.756-.322-.398-.89-.686-.563-.287-1.477-.287-1.342 0-2.133.721-.791.715-.867 2.303-.07 2.062 0 4.172.076 1.681.89 2.425.815.745 2.186.745.885 0 1.594-.311.709-.31 1.113-.973.41-.662.41-1.693v-.457h-2.256q-.263 0-.433-.176-.165-.181-.165-.445V8.063q0-.264.165-.446.17-.181.433-.181h6.047q.264 0 .434.181.17.182.17.446v2.736q0 2.062-.938 3.527-.937 1.465-2.654 2.244-1.711.78-3.996.78Zm9.027-.24q-.193 0-.352-.153-.152-.158-.152-.352 0-.117.024-.216l5.642-15.41q.07-.264.299-.463.229-.205.633-.205h3.551q.41 0 .638.205.229.199.299.463l5.619 15.41q.047.1.047.216 0 .194-.158.352-.152.152-.369.152h-2.953q-.358 0-.539-.175-.182-.182-.229-.329l-.937-2.449h-6.405l-.914 2.45q-.047.146-.217.328-.17.175-.574.175h-2.953Zm5.637-6.41h4.465l-2.233-6.335-2.232 6.334Zm13.106 6.41q-.264 0-.434-.176-.164-.182-.164-.422V.908q0-.263.164-.428.17-.17.434-.17h2.543q.41 0 .586.182.181.176.234.276l5.853 9.21V.909q0-.263.165-.428.169-.17.433-.17h2.883q.264 0 .428.17.17.165.17.428v15.58q0 .264-.17.446-.164.175-.428.175h-2.566q-.387 0-.569-.193-.176-.193-.228-.264l-5.854-8.877v8.737q0 .24-.17.422-.164.175-.428.175h-2.882Zm17.256 0q-.264 0-.434-.176-.164-.182-.164-.422V.908q0-.263.164-.428.17-.17.434-.17h3.17q.263 0 .427.17.17.165.17.428v12.58h7.272q.263 0 .433.182.17.176.17.44v2.402q0 .24-.17.422-.17.175-.433.175H140.71Zm14.328 0q-.264 0-.434-.176-.164-.182-.164-.422V.908q0-.263.164-.428.17-.17.434-.17h3.216q.264 0 .44.17.182.165.182.428v15.604q0 .24-.182.422-.176.175-.44.175h-3.216Zm7.776 0q-.264 0-.434-.176-.164-.182-.164-.422V.908q0-.263.164-.428.17-.17.434-.17h3.023q.264 0 .434.17.17.165.17.428V6.24l4.435-5.472q.1-.147.328-.3.229-.157.61-.157h3.457q.216 0 .357.158.147.152.147.345 0 .165-.071.288l-5.759 7.248 6.187 7.968q.1.094.1.287 0 .194-.147.352-.14.152-.357.152h-3.58q-.428 0-.657-.193-.228-.193-.298-.287l-4.752-5.93v5.813q0 .24-.17.422-.17.175-.434.175h-3.023Zm15.912 0q-.264 0-.434-.176-.164-.182-.164-.422V.908q0-.263.164-.428.17-.17.434-.17h3.17q.263 0 .427.17.17.165.17.428v12.58h7.272q.263 0 .433.182.17.176.17.44v2.402q0 .24-.17.422-.17.175-.433.175h-11.039Zm12.769 0q-.193 0-.351-.153-.153-.158-.153-.352 0-.117.024-.216l5.642-15.41q.07-.264.299-.463.229-.205.633-.205h3.551q.41 0 .638.205.229.199.299.463l5.619 15.41q.047.1.047.216 0 .194-.158.352-.152.152-.369.152h-2.953q-.358 0-.539-.175-.182-.182-.229-.329l-.937-2.449h-6.405l-.914 2.45q-.047.146-.217.328-.17.175-.574.175h-2.953Zm5.637-6.41h4.465l-2.233-6.335-2.232 6.334Zm13.106 6.41q-.264 0-.434-.176-.164-.182-.164-.422V.908q0-.263.164-.428.17-.17.434-.17h6.527q3.123 0 4.898 1.43 1.776 1.424 1.776 4.043 0 1.705-.82 2.883-.815 1.172-2.157 1.77l3.287 5.906q.071.146.071.264 0 .193-.159.351-.152.152-.345.152h-3.188q-.457 0-.674-.228-.216-.229-.31-.422l-2.736-5.28h-2.45v5.333q0 .24-.181.422-.176.175-.44.175h-3.099Zm3.72-9.335h2.76q1.131 0 1.693-.55.563-.557.563-1.495 0-.931-.539-1.505-.539-.58-1.717-.58h-2.76v4.13Zm17.302 9.334q-.264 0-.445-.175-.176-.182-.176-.422v-1.705q0-.17.093-.516.1-.351.504-.662l2.496-2.45q1.922-1.464 3.159-2.484 1.236-1.02 1.834-1.81.603-.791.603-1.489 0-.814-.422-1.353-.422-.54-1.453-.54-.697 0-1.154.3-.451.299-.703.779-.252.48-.352.984-.094.311-.322.434-.229.117-.492.117h-3q-.217 0-.364-.14-.14-.147-.14-.364.023-1.154.492-2.174t1.318-1.787q.856-.767 2.039-1.207Q235.965 0 237.453 0q2.039 0 3.469.662 1.43.656 2.174 1.822.744 1.16.744 2.72 0 1.177-.516 2.196-.515 1.02-1.465 1.946-.949.925-2.244 1.91l-2.209 2.232h6.17q.264 0 .44.17.181.164.181.428v2.426q0 .24-.181.422-.176.175-.44.175H231.26Zm23.232 0q-.24 0-.422-.175-.175-.182-.175-.422v-2.713h-7.465q-.24 0-.422-.17-.176-.17-.176-.434v-2.279q0-.217.082-.393.082-.181.182-.351L253.08.715q.311-.404.885-.404h3.504q.24 0 .422.17.181.164.181.427v9.31h2.11q.287 0 .457.182.17.182.17.422v2.373q0 .264-.182.434-.182.17-.422.17h-2.133v2.713q0 .24-.181.422-.182.175-.422.175h-2.977Zm-4.535-6.72h4.031V4.723l-4.031 5.666Z"/></svg>